<svg xmlns="http://www.w3.org/2000/svg" xmlns:xlink="http://www.w3.org/1999/xlink" viewBox="0 0 1024 1024"><defs><style>.cls-1{fill:url(#linear-gradient);}.cls-2{fill:#fff;}.cls-3{fill:#f16673;}.cls-4{fill:#f04f66;}.cls-5{fill:#eb3466;}.cls-6{fill:#be1f4b;}.cls-7{fill:#ee1c4e;opacity:0.4;}</style><linearGradient id="linear-gradient" x1="8.78" y1="205.54" x2="1013.1" y2="817.17" gradientUnits="userSpaceOnUse"><stop offset="0" stop-color="#ee276f"/><stop offset="1" stop-color="#f26324"/></linearGradient></defs><title>Logo</title><g id="Layer_2" data-name="Layer 2"><g id="Layer_2-2" data-name="Layer 2"><rect class="cls-1" width="1024" height="1024"/><circle class="cls-2" cx="512" cy="512" r="366.4"/><path class="cls-3" d="M737.27,549.17c-6.71,119.92-97.37,217.46-217.48,217.46s-220.57-78.8-220.57-198.9c0-116.88,22.77-135.58,200.11-308.14a24.88,24.88,0,0,1,32.31-2C585.16,297.77,744.07,427.78,737.27,549.17Z"/><path class="cls-4" d="M437.52,319.82S540.35,470.21,713.83,454.44c0,0,31.61,53.48,22,111.18,0,0-238.3,83.18-376-165.52l37.08-39.79Z"/><path class="cls-5" d="M359.82,400.1s109.73,236.49,376,165.52c0,0-.65,30.53-21,73.71a307.68,307.68,0,0,1-17.41,31s-258,98.18-395.72-150.52c-.77.2,1-14.91,5.19-30.55,3.65-13.59,9.45-27.47,13.16-33.62,3.29-5.46,12.62-20,21.74-32.51S359.82,400.1,359.82,400.1Z"/><path class="cls-6" d="M301.69,519.79s-8.32,41.31,2.15,90C315.71,664.92,353.12,726.48,444,755.48a233.92,233.92,0,0,0,105.1,9.16c99.79-13.67,148.31-94.33,148.31-94.33S637.65,692.77,561.2,689c-53.65-2.67-115.42-18.87-171-62.27C357.76,601.4,328.26,567.9,301.69,519.79Z"/><path class="cls-7" d="M641.78,554.48c.1,43.18-9.79,96.46-34.64,136.33-29.87,47.94-79.55,80.56-130.54,72.32-59-9.54-114.29-41.21-146.57-90-22.5-34-32.33-76-30.73-116.41,1-25.45,2.56-45.92,6.68-63.83,10.7-46.57,52.43-92.39,88.55-130.13,41.74-43.61,77-75.82,77-75.82C621.47,423.76,630.13,478.9,635.2,495.19,641.86,512.17,641.74,540.19,641.78,554.48Z"/></g></g></svg>